<svg id="visual" viewBox="0 0 900 600" width="900" height="600" xmlns="http://www.w3.org/2000/svg" xmlns:xlink="http://www.w3.org/1999/xlink" version="1.1"><rect x="0" y="0" width="900" height="600" fill="#ffffff"></rect><defs><linearGradient id="grad1_0" x1="33.3%" y1="0%" x2="100%" y2="100%"><stop offset="20%" stop-color="#6600ff" stop-opacity="1"></stop><stop offset="80%" stop-color="#6600ff" stop-opacity="1"></stop></linearGradient></defs><defs><linearGradient id="grad1_1" x1="33.3%" y1="0%" x2="100%" y2="100%"><stop offset="20%" stop-color="#6600ff" stop-opacity="1"></stop><stop offset="80%" stop-color="#8c44ff" stop-opacity="1"></stop></linearGradient></defs><defs><linearGradient id="grad1_2" x1="33.3%" y1="0%" x2="100%" y2="100%"><stop offset="20%" stop-color="#aa6cff" stop-opacity="1"></stop><stop offset="80%" stop-color="#8c44ff" stop-opacity="1"></stop></linearGradient></defs><defs><linearGradient id="grad1_3" x1="33.3%" y1="0%" x2="100%" y2="100%"><stop offset="20%" stop-color="#aa6cff" stop-opacity="1"></stop><stop offset="80%" stop-color="#c391ff" stop-opacity="1"></stop></linearGradient></defs><defs><linearGradient id="grad1_4" x1="33.3%" y1="0%" x2="100%" y2="100%"><stop offset="20%" stop-color="#dab5ff" stop-opacity="1"></stop><stop offset="80%" stop-color="#c391ff" stop-opacity="1"></stop></linearGradient></defs><defs><linearGradient id="grad1_5" x1="33.3%" y1="0%" x2="100%" y2="100%"><stop offset="20%" stop-color="#dab5ff" stop-opacity="1"></stop><stop offset="80%" stop-color="#eddaff" stop-opacity="1"></stop></linearGradient></defs><defs><linearGradient id="grad1_6" x1="33.3%" y1="0%" x2="100%" y2="100%"><stop offset="20%" stop-color="#ffffff" stop-opacity="1"></stop><stop offset="80%" stop-color="#eddaff" stop-opacity="1"></stop></linearGradient></defs><defs><linearGradient id="grad2_0" x1="0%" y1="0%" x2="66.7%" y2="100%"><stop offset="20%" stop-color="#6600ff" stop-opacity="1"></stop><stop offset="80%" stop-color="#6600ff" stop-opacity="1"></stop></linearGradient></defs><defs><linearGradient id="grad2_1" x1="0%" y1="0%" x2="66.7%" y2="100%"><stop offset="20%" stop-color="#8c44ff" stop-opacity="1"></stop><stop offset="80%" stop-color="#6600ff" stop-opacity="1"></stop></linearGradient></defs><defs><linearGradient id="grad2_2" x1="0%" y1="0%" x2="66.7%" y2="100%"><stop offset="20%" stop-color="#8c44ff" stop-opacity="1"></stop><stop offset="80%" stop-color="#aa6cff" stop-opacity="1"></stop></linearGradient></defs><defs><linearGradient id="grad2_3" x1="0%" y1="0%" x2="66.7%" y2="100%"><stop offset="20%" stop-color="#c391ff" stop-opacity="1"></stop><stop offset="80%" stop-color="#aa6cff" stop-opacity="1"></stop></linearGradient></defs><defs><linearGradient id="grad2_4" x1="0%" y1="0%" x2="66.7%" y2="100%"><stop offset="20%" stop-color="#c391ff" stop-opacity="1"></stop><stop offset="80%" stop-color="#dab5ff" stop-opacity="1"></stop></linearGradient></defs><defs><linearGradient id="grad2_5" x1="0%" y1="0%" x2="66.7%" y2="100%"><stop offset="20%" stop-color="#eddaff" stop-opacity="1"></stop><stop offset="80%" stop-color="#dab5ff" stop-opacity="1"></stop></linearGradient></defs><defs><linearGradient id="grad2_6" x1="0%" y1="0%" x2="66.7%" y2="100%"><stop offset="20%" stop-color="#eddaff" stop-opacity="1"></stop><stop offset="80%" stop-color="#ffffff" stop-opacity="1"></stop></linearGradient></defs><g transform="translate(900, 0)"><path d="M0 486.7C-65.8 441.4 -131.6 396 -208.5 361.1C-285.4 326.2 -373.3 301.8 -421.5 243.4C-469.8 184.9 -478.3 92.5 -486.7 0L0 0Z" fill="#f6ecff"></path><path d="M0 417.2C-56.4 378.3 -112.8 339.4 -178.7 309.5C-244.6 279.6 -320 258.7 -361.3 208.6C-402.6 158.5 -409.9 79.3 -417.2 0L0 0Z" fill="#e4c8ff"></path><path d="M0 347.7C-47 315.3 -94 282.9 -148.9 258C-203.8 233 -266.7 215.6 -301.1 173.8C-335.5 132.1 -341.6 66 -347.7 0L0 0Z" fill="#cfa3ff"></path><path d="M0 278.1C-37.6 252.2 -75.2 226.3 -119.1 206.4C-163.1 186.4 -213.3 172.5 -240.9 139.1C-268.4 105.7 -273.3 52.8 -278.1 0L0 0Z" fill="#b77eff"></path><path d="M0 208.6C-28.2 189.2 -56.4 169.7 -89.4 154.8C-122.3 139.8 -160 129.4 -180.7 104.3C-201.3 79.3 -205 39.6 -208.6 0L0 0Z" fill="#9c58ff"></path><path d="M0 139.1C-18.8 126.1 -37.6 113.1 -59.6 103.2C-81.5 93.2 -106.7 86.2 -120.4 69.5C-134.2 52.8 -136.6 26.4 -139.1 0L0 0Z" fill="#7b2bff"></path><path d="M0 69.5C-9.4 63.1 -18.8 56.6 -29.8 51.6C-40.8 46.6 -53.3 43.1 -60.2 34.8C-67.1 26.4 -68.3 13.2 -69.5 0L0 0Z" fill="#6600ff"></path></g><g transform="translate(0, 600)"><path d="M0 -486.7C85.2 -474.1 170.4 -461.4 243.4 -421.5C316.4 -381.7 377.2 -314.8 415.7 -240C454.2 -165.2 470.5 -82.6 486.7 0L0 0Z" fill="#f6ecff"></path><path d="M0 -417.2C73 -406.3 146 -395.4 208.6 -361.3C271.2 -327.2 323.3 -269.8 356.3 -205.7C389.3 -141.6 403.3 -70.8 417.2 0L0 0Z" fill="#e4c8ff"></path><path d="M0 -347.7C60.9 -338.6 121.7 -329.5 173.8 -301.1C226 -272.7 269.4 -224.8 296.9 -171.4C324.4 -118 336.1 -59 347.7 0L0 0Z" fill="#cfa3ff"></path><path d="M0 -278.1C48.7 -270.9 97.4 -263.6 139.1 -240.9C180.8 -218.1 215.5 -179.9 237.5 -137.1C259.6 -94.4 268.8 -47.2 278.1 0L0 0Z" fill="#b77eff"></path><path d="M0 -208.6C36.5 -203.2 73 -197.7 104.3 -180.7C135.6 -163.6 161.6 -134.9 178.2 -102.9C194.7 -70.8 201.6 -35.4 208.6 0L0 0Z" fill="#9c58ff"></path><path d="M0 -139.1C24.3 -135.4 48.7 -131.8 69.5 -120.4C90.4 -109.1 107.8 -89.9 118.8 -68.6C129.8 -47.2 134.4 -23.6 139.1 0L0 0Z" fill="#7b2bff"></path><path d="M0 -69.5C12.2 -67.7 24.3 -65.9 34.8 -60.2C45.2 -54.5 53.9 -45 59.4 -34.3C64.9 -23.6 67.2 -11.8 69.5 0L0 0Z" fill="#6600ff"></path></g></svg>